# xmcd
#
# Track frame offsets:
#	150
#	15247
#	34772
#	46722
#	61947
#	75922
#	87732
#	108555
#	124115
#	136127
#	149597
#
# Disc length: 2136 seconds
#
# Revision: 3
# Processed by: cddbd v1.4PL0 Copyright (c) Steve Scherf et al.
# Submitted via: CDmax 1.9
#
DISCID=8808560b
DTITLE=Scott Joss - Souveniers
DYEAR=1996
DGENRE=Country
TTITLE0=Doin' Time in Bakersfield
TTITLE1=Mary Got a Baby
TTITLE2=I Never Got Anywhere With You
TTITLE3=She's So Lonely
TTITLE4=Workin' Girl
TTITLE5=Home Before Dark
TTITLE6=Souvenirs
TTITLE7=One of the Lonely
TTITLE8=Stay Out of My Arms
TTITLE9=My Baby's Gone
TTITLE10=Country King of the Blues
EXTD=
EXTT0=
EXTT1=
EXTT2=
EXTT3=
EXTT4=
EXTT5=
EXTT6=
EXTT7=
EXTT8=
EXTT9=
EXTT10=
PLAYORDER=
